<?xml version="1.0" encoding="utf-8"?>
<svg viewBox="0 0 500 500" width="500px" height="500px" class="bead-sprite__bead-road--tie-tri" xmlns="http://www.w3.org/2000/svg" xmlns:bx="https://boxy-svg.com">
  <defs>
    <linearGradient id="color-0" bx:pinned="true">
      <title>Player</title>
      <stop style="stop-color: rgba(34, 139, 230, 0.85);"/>
    </linearGradient>
    <linearGradient id="color-2" bx:pinned="true">
      <title>Tie</title>
      <stop style="stop-color: rgba(64, 192, 87, 0.79);"/>
    </linearGradient>
    <linearGradient id="color-1" bx:pinned="true">
      <title>Banker</title>
      <stop style="stop-color: rgba(240, 62, 62, 0.84);"/>
    </linearGradient>
  </defs>
  <g id="bead-road-banker-initial" transform="matrix(0.964727, 0, 0, 1, -297.708771, -353.781006)" bx:origin="0.000001 0">
    <title>Banker-Bead-Road-Initial</title>
    <circle style="fill: rgb(240, 62, 62);" cx="334.051" cy="428.781" r="25" class="BANKER BEAD BIG_ROAD banker-bead-big-road"/>
    <text style="font-family: &quot;Diplomata SC&quot;; font-size: 35px; white-space: pre;" x="322.381" y="440.604">B</text>
  </g>
  <g id="bead-road-player-initial" transform="matrix(0.980993, 0, 0, 1, -252.713058, -429.984009)" bx:origin="0.000002 0">
    <title>Player-Bead-Road-Initial</title>
    <circle style="fill: url(#color-0);" cx="333.863" cy="504.984" r="25" class="player-bead-road bead-road-bead"/>
    <text style="font-family: &quot;Diplomata SC&quot;; font-size: 35px; white-space: pre;" x="324.129" y="516.718">P</text>
  </g>
  <g id="bead-road-tie-initial" transform="matrix(1, 0, 0, 1, -205.320007, -498.054993)" bx:origin="0 0">
    <title>Tie-Bead-Road-Initial</title>
    <circle style="fill: url(#color-2);" cx="330.32" cy="573.055" r="25" class="tie-bead-road bead-road-bead"/>
    <text style="font-family: &quot;Diplomata SC&quot;; font-size: 35px; white-space: pre;" x="319.629" y="584.951">T</text>
  </g>
  <circle style="fill: rgb(240, 62, 62);" cx="25" cy="25" r="25" class="bead-road bead" id="bead-road-banker" bx:origin="0 0"/>
  <circle style="fill: url(#color-0);" cx="75" cy="25" r="25" id="bead-road-player" class="bead bead-road" bx:origin="0 0"/>
  <circle style="fill: url(#color-2);" cx="125" cy="24.53" r="25" id="bead-road-tie" class="bead bead-road" bx:origin="0 0"/>
  <circle id="big-road-banker" style="fill: none; stroke: url(#color-1); stroke-width: 5px;" cx="25" cy="125" r="22.5" class="big-road bead"/>
  <circle id="big-road-player" style="fill: none; stroke: url(#color-0); stroke-width: 5px;" cx="75" cy="125" r="22.5" class="bead big-road"/>
  <g transform="matrix(1, 0, 0, 1, 49, 0)" class="bead-sprite__bead-road__big-road--pairs-banker" bx:origin="0 0">
    <rect x="101" class="st7" width="50" height="50" style="fill: none;"/>
    <circle class="st1" cx="111.6" cy="10.6" r="7.2" style="fill: rgb(240, 62, 62);"/>
  </g>
  <g transform="matrix(1, 0, 0, 1, 52.5, 0)" class="bead-sprite__bead-road__big-road--pairs-player" bx:origin="0 0">
    <circle class="st8" cx="136.9" cy="89.4" r="7.2" style="fill: rgb(66, 65, 173);"/>
    <rect x="97.5" y="50" class="st7" width="50" height="50" style="fill: none;"/>
    <circle class="st7" cx="108.1" cy="60.6" r="7.2" style="fill: none;"/>
  </g>
  <g transform="matrix(1, 0, 0, 1, 50, 0)" class="bead-sprite__bead-road__big-road--pairs-both" bx:origin="0 0">
    <circle class="st8" cx="139.4" cy="139.4" r="7.2" style="fill: rgb(66, 65, 173);"/>
    <rect x="100" y="100" class="st7" width="50" height="50" style="fill: none;"/>
    <circle class="st1" cx="110.6" cy="110.6" r="7.2" style="fill: rgb(240, 62, 62);"/>
  </g>
  <path d="M 0 0 L 0 0 L 0 0 L 0 0 L 0 0 Z" style="fill: rgb(216, 216, 216);" bx:shape="n-gon 0 0 0 0 5 0 1@8d584f78"/>
  <polyline style="fill: rgb(216, 216, 216);" points="250.148 0.187 200.069 0.187 249.903 49.53 250.148 -0.304" class="bead-sprite__bead-road--natural"/>
  <rect x="100" y="150" width="50" height="50" rx="10" ry="10" style="fill: rgb(216, 216, 216); visibility: hidden;" bx:origin="0 0"/>
  <line style="stroke-width: 5px; stroke: url(#color-2);" x1="150" y1="100" x2="100" y2="150"/>
</svg>